<?xml version="1.0" standalone="no"?>
<!DOCTYPE svg PUBLIC "-//W3C//DTD SVG 1.1//EN" "http://www.w3.org/Graphics/SVG/1.1/DTD/svg11.dtd" >
<svg xmlns="http://www.w3.org/2000/svg">
<metadata>Generated by IcoMoon</metadata>
<defs>
<font id="worldtoday" horiz-adv-x="1024">
<font-face units-per-em="1024" ascent="896" descent="-128" />
<missing-glyph horiz-adv-x="1024" />
<glyph unicode="&#x20;" d="" />
<glyph unicode="&#xe828;" glyph-name="arrow-left" d="M853.333 426.667h-682.667c-23.564 0-42.667-19.103-42.667-42.667s19.103-42.667 42.667-42.667h682.667c23.564 0 42.667 19.103 42.667 42.667s-19.103 42.667-42.667 42.667v0zM456.832 609.835c8.036 7.769 13.026 18.647 13.026 30.69 0 23.564-19.103 42.667-42.667 42.667-12.043 0-22.92-4.989-30.678-13.014l-256.012-256.012c-7.718-7.721-12.492-18.386-12.492-30.165s4.774-22.445 12.492-30.165l256-256c7.769-8.036 18.647-13.026 30.69-13.026 23.564 0 42.667 19.103 42.667 42.667 0 12.043-4.989 22.92-13.014 30.678l-225.847 225.847 225.835 225.835z" />
<glyph unicode="&#xe829;" glyph-name="arrow-right" d="M170.667 341.333h682.667c23.564 0 42.667 19.103 42.667 42.667s-19.103 42.667-42.667 42.667h-682.667c-23.564 0-42.667-19.103-42.667-42.667s19.103-42.667 42.667-42.667v0zM567.168 158.165c-7.41-7.665-11.977-18.12-11.977-29.641 0-23.564 19.103-42.667 42.667-42.667 11.521 0 21.976 4.567 29.653 11.989l255.988 255.988c7.718 7.721 12.492 18.386 12.492 30.165s-4.774 22.445-12.492 30.165l-256 256c-7.665 7.41-18.12 11.977-29.641 11.977-23.564 0-42.667-19.103-42.667-42.667 0-11.521 4.567-21.976 11.989-29.653l225.823-225.823-225.835-225.835z" />
<glyph unicode="&#xe82a;" glyph-name="arrow-down" d="M469.333 725.333v-682.667c0-23.564 19.103-42.667 42.667-42.667s42.667 19.103 42.667 42.667v0 682.667c0 23.564-19.103 42.667-42.667 42.667s-42.667-19.103-42.667-42.667v0zM286.165 328.832c-7.769 8.036-18.647 13.026-30.69 13.026-23.564 0-42.667-19.103-42.667-42.667 0-12.043 4.989-22.92 13.014-30.678l256.012-256.012c7.721-7.718 18.386-12.492 30.165-12.492s22.445 4.774 30.165 12.492l256 256c7.41 7.665 11.977 18.12 11.977 29.641 0 23.564-19.103 42.667-42.667 42.667-11.521 0-21.976-4.567-29.653-11.989l-225.823-225.823-225.835 225.835z" />
<glyph unicode="&#xe82b;" glyph-name="arrow-left1" d="M853.333 426.667h-682.667c-23.564 0-42.667-19.103-42.667-42.667s19.103-42.667 42.667-42.667h682.667c23.564 0 42.667 19.103 42.667 42.667s-19.103 42.667-42.667 42.667v0zM456.832 609.835c8.036 7.769 13.026 18.647 13.026 30.69 0 23.564-19.103 42.667-42.667 42.667-12.043 0-22.92-4.989-30.678-13.014l-256.012-256.012c-7.718-7.721-12.492-18.386-12.492-30.165s4.774-22.445 12.492-30.165l256-256c7.769-8.036 18.647-13.026 30.69-13.026 23.564 0 42.667 19.103 42.667 42.667 0 12.043-4.989 22.92-13.014 30.678l-225.847 225.847 225.835 225.835z" />
<glyph unicode="&#xe82c;" glyph-name="arrow-up-right" d="M286.165 97.835l512 512c8.036 7.769 13.026 18.647 13.026 30.69 0 23.564-19.103 42.667-42.667 42.667-12.043 0-22.92-4.989-30.678-13.014l-512.012-512.012c-7.41-7.665-11.977-18.12-11.977-29.641 0-23.564 19.103-42.667 42.667-42.667 11.521 0 21.976 4.567 29.653 11.989l-0.012-0.012zM725.333 256c0-23.564 19.103-42.667 42.667-42.667s42.667 19.103 42.667 42.667v0 384c0 23.564-19.103 42.667-42.667 42.667v0h-384c-23.564 0-42.667-19.103-42.667-42.667s19.103-42.667 42.667-42.667v0h341.333v-341.333z" />
<glyph unicode="&#xe82d;" glyph-name="arrow-up" d="M554.667 42.667v682.667c0 23.564-19.103 42.667-42.667 42.667s-42.667-19.103-42.667-42.667v0-682.667c0-23.564 19.103-42.667 42.667-42.667s42.667 19.103 42.667 42.667v0zM737.835 439.168c7.665-7.41 18.12-11.977 29.641-11.977 23.564 0 42.667 19.103 42.667 42.667 0 11.521-4.567 21.976-11.989 29.653l-255.988 255.988c-7.721 7.718-18.386 12.492-30.165 12.492s-22.445-4.774-30.165-12.492l-256-256c-7.41-7.665-11.977-18.12-11.977-29.641 0-23.564 19.103-42.667 42.667-42.667 11.521 0 21.976 4.567 29.653 11.989l225.823 225.823 225.835-225.835z" />
<glyph unicode="&#xe82e;" glyph-name="arrow-right1" d="M170.667 341.333h682.667c23.564 0 42.667 19.103 42.667 42.667s-19.103 42.667-42.667 42.667h-682.667c-23.564 0-42.667-19.103-42.667-42.667s19.103-42.667 42.667-42.667v0zM567.168 158.165c-7.41-7.665-11.977-18.12-11.977-29.641 0-23.564 19.103-42.667 42.667-42.667 11.521 0 21.976 4.567 29.653 11.989l255.988 255.988c7.718 7.721 12.492 18.386 12.492 30.165s-4.774 22.445-12.492 30.165l-256 256c-7.665 7.41-18.12 11.977-29.641 11.977-23.564 0-42.667-19.103-42.667-42.667 0-11.521 4.567-21.976 11.989-29.653l225.823-225.823-225.835-225.835z" />
<glyph unicode="&#xe82f;" glyph-name="arrow-down1" d="M469.333 725.333v-682.667c0-23.564 19.103-42.667 42.667-42.667s42.667 19.103 42.667 42.667v0 682.667c0 23.564-19.103 42.667-42.667 42.667s-42.667-19.103-42.667-42.667v0zM286.165 328.832c-7.769 8.036-18.647 13.026-30.69 13.026-23.564 0-42.667-19.103-42.667-42.667 0-12.043 4.989-22.92 13.014-30.678l256.012-256.012c7.721-7.718 18.386-12.492 30.165-12.492s22.445 4.774 30.165 12.492l256 256c7.41 7.665 11.977 18.12 11.977 29.641 0 23.564-19.103 42.667-42.667 42.667-11.521 0-21.976-4.567-29.653-11.989l-225.823-225.823-225.835 225.835z" />
<glyph unicode="&#xe830;" glyph-name="arrow-up-right1" d="M286.165 97.835l512 512c8.036 7.769 13.026 18.647 13.026 30.69 0 23.564-19.103 42.667-42.667 42.667-12.043 0-22.92-4.989-30.678-13.014l-512.012-512.012c-7.41-7.665-11.977-18.12-11.977-29.641 0-23.564 19.103-42.667 42.667-42.667 11.521 0 21.976 4.567 29.653 11.989l-0.012-0.012zM725.333 256c0-23.564 19.103-42.667 42.667-42.667s42.667 19.103 42.667 42.667v0 384c0 23.564-19.103 42.667-42.667 42.667v0h-384c-23.564 0-42.667-19.103-42.667-42.667s19.103-42.667 42.667-42.667v0h341.333v-341.333z" />
<glyph unicode="&#xe831;" glyph-name="arrow-up1" d="M554.667 42.667v682.667c0 23.564-19.103 42.667-42.667 42.667s-42.667-19.103-42.667-42.667v0-682.667c0-23.564 19.103-42.667 42.667-42.667s42.667 19.103 42.667 42.667v0zM737.835 439.168c7.665-7.41 18.12-11.977 29.641-11.977 23.564 0 42.667 19.103 42.667 42.667 0 11.521-4.567 21.976-11.989 29.653l-255.988 255.988c-7.721 7.718-18.386 12.492-30.165 12.492s-22.445-4.774-30.165-12.492l-256-256c-7.41-7.665-11.977-18.12-11.977-29.641 0-23.564 19.103-42.667 42.667-42.667 11.521 0 21.976 4.567 29.653 11.989l225.823 225.823 225.835-225.835z" />
<glyph unicode="&#xe900;" glyph-name="messenger" d="M42.662 398.080c0 261.656 204.945 455.258 469.338 455.258s469.338-193.602 469.338-455.258-204.945-455.258-469.338-455.258c-47.325 0-93.085 6.259-135.717 17.991-2.927 0.82-6.288 1.29-9.759 1.29-5.53 0-10.78-1.196-15.507-3.342l0.235 0.096-93.477-41.068c-4.491-2.050-9.739-3.245-15.268-3.245-20.364 0-36.943 16.212-37.53 36.435l-0.001 0.055-2.739 83.699c-0.458 10.579-5.182 19.971-12.483 26.567l-0.033 0.030c-90.488 81.858-147.1 199.712-147.1 330.789 0 2.096 0.014 4.189 0.043 6.278l-0.004-0.317zM368.069 483.734l-137.673-219.025c-13.689-20.729 12.515-44.588 32.071-29.334l148.233 112.249c10.169 7.822 23.466 7.822 34.028 0l109.513-82.134c32.854-24.64 79.788-15.645 101.689 18.774l137.673 219.025c13.689 20.729-12.515 44.195-32.071 29.334l-148.233-112.249c-9.779-7.822-23.466-7.822-33.635 0l-109.513 82.134c-11.656 8.88-26.421 14.227-42.435 14.227-25.018 0-46.988-13.050-59.475-32.714l-0.17-0.287z" />
<glyph unicode="&#xe902;" glyph-name="x" d="M225.835 609.835l225.835-225.835-225.835-225.835c-16.683-16.683-16.683-43.691 0-60.331s43.691-16.683 60.331 0l225.835 225.835 225.835-225.835c16.683-16.683 43.691-16.683 60.331 0s16.683 43.691 0 60.331l-225.835 225.835 225.835 225.835c16.683 16.683 16.683 43.691 0 60.331s-43.691 16.683-60.331 0l-225.835-225.835-225.835 225.835c-16.683 16.683-43.691 16.683-60.331 0s-16.683-43.691 0-60.331z" />
<glyph unicode="&#xe923;" glyph-name="bookmark" d="M725.333 810.667h-426.667c-72.533 0-128-55.467-128-128v-682.667c0-17.067 8.533-29.867 21.333-38.4s29.867-4.267 42.667 4.267l273.067 196.267 273.067-196.267c8.533-4.267 17.067-8.533 25.6-8.533s12.8 0 21.333 4.267c12.8 8.533 21.333 21.333 21.333 38.4v682.667c4.267 72.533-51.2 128-123.733 128zM768 81.067l-230.4 166.4c-8.533 4.267-17.067 8.533-25.6 8.533s-17.067-4.267-25.6-8.533l-230.4-166.4v601.6c0 25.6 17.067 42.667 42.667 42.667h426.667c25.6 0 42.667-17.067 42.667-42.667v-601.6z" />
<glyph unicode="&#xe92a;" glyph-name="check" d="M883.2 669.867c-17.067 17.067-42.667 17.067-59.733 0l-439.467-439.467-183.467 183.467c-17.067 17.067-42.667 17.067-59.733 0s-17.067-42.667 0-59.733l213.333-213.333c8.533-8.533 17.067-12.8 29.867-12.8s21.333 4.267 29.867 12.8l469.333 469.333c17.067 17.067 17.067 42.667 0 59.733z" />
<glyph unicode="&#xe92d;" glyph-name="chevron-down" d="M797.867 541.867c-17.067 17.067-42.667 17.067-59.733 0l-226.133-226.133-226.133 226.133c-17.067 17.067-42.667 17.067-59.733 0s-17.067-42.667 0-59.733l256-256c8.533-8.533 21.333-12.8 29.867-12.8s21.333 4.267 29.867 12.8l256 256c17.067 17.067 17.067 42.667 0 59.733z" />
<glyph unicode="&#xe930;" glyph-name="chevron-up" d="M797.867 285.867l-256 256c-17.067 17.067-42.667 17.067-59.733 0l-256-256c-17.067-17.067-17.067-42.667 0-59.733s42.667-17.067 59.733 0l226.133 226.133 226.133-226.133c8.533-8.533 21.333-12.8 29.867-12.8s21.333 4.267 29.867 12.8c17.067 17.067 17.067 42.667 0 59.733z" />
<glyph unicode="&#xe95a;" glyph-name="external-link" d="M768 384c-25.6 0-42.667-17.067-42.667-42.667v-256c0-25.6-17.067-42.667-42.667-42.667h-469.333c-25.6 0-42.667 17.067-42.667 42.667v469.333c0 25.6 17.067 42.667 42.667 42.667h256c25.6 0 42.667 17.067 42.667 42.667s-17.067 42.667-42.667 42.667h-256c-72.533 0-128-55.467-128-128v-469.333c0-72.533 55.467-128 128-128h469.333c72.533 0 128 55.467 128 128v256c0 25.6-17.067 42.667-42.667 42.667zM934.4 785.067c-4.267 8.533-12.8 17.067-21.333 21.333-4.267 4.267-12.8 4.267-17.067 4.267h-256c-25.6 0-42.667-17.067-42.667-42.667s17.067-42.667 42.667-42.667h153.6l-396.8-396.8c-17.067-17.067-17.067-42.667 0-59.733 8.533-8.533 17.067-12.8 29.867-12.8s21.333 4.267 29.867 12.8l396.8 396.8v-153.6c0-25.6 17.067-42.667 42.667-42.667s42.667 17.067 42.667 42.667v256c0 4.267 0 12.8-4.267 17.067z" />
<glyph unicode="&#xe986;" glyph-name="log-in" d="M810.667 810.667h-170.667c-25.6 0-42.667-17.067-42.667-42.667s17.067-42.667 42.667-42.667h170.667c25.6 0 42.667-17.067 42.667-42.667v-597.333c0-25.6-17.067-42.667-42.667-42.667h-170.667c-25.6 0-42.667-17.067-42.667-42.667s17.067-42.667 42.667-42.667h170.667c72.533 0 128 55.467 128 128v597.333c0 72.533-55.467 128-128 128zM678.4 366.933c4.267 8.533 4.267 21.333 0 34.133-4.267 4.267-4.267 8.533-8.533 12.8l-213.333 213.333c-17.067 17.067-42.667 17.067-59.733 0s-17.067-42.667 0-59.733l140.8-140.8h-409.6c-25.6 0-42.667-17.067-42.667-42.667s17.067-42.667 42.667-42.667h409.6l-140.8-140.8c-17.067-17.067-17.067-42.667 0-59.733 8.533-8.533 17.067-12.8 29.867-12.8s21.333 4.267 29.867 12.8l213.333 213.333c4.267 4.267 8.533 8.533 8.533 12.8z" />
<glyph unicode="&#xe987;" glyph-name="log-out" d="M384 42.667h-170.667c-25.6 0-42.667 17.067-42.667 42.667v597.333c0 25.6 17.067 42.667 42.667 42.667h170.667c25.6 0 42.667 17.067 42.667 42.667s-17.067 42.667-42.667 42.667h-170.667c-72.533 0-128-55.467-128-128v-597.333c0-72.533 55.467-128 128-128h170.667c25.6 0 42.667 17.067 42.667 42.667s-17.067 42.667-42.667 42.667zM934.4 366.933c4.267 8.533 4.267 21.333 0 34.133-4.267 4.267-4.267 8.533-8.533 12.8l-213.333 213.333c-17.067 17.067-42.667 17.067-59.733 0s-17.067-42.667 0-59.733l140.8-140.8h-409.6c-25.6 0-42.667-17.067-42.667-42.667s17.067-42.667 42.667-42.667h409.6l-140.8-140.8c-17.067-17.067-17.067-42.667 0-59.733 8.533-8.533 21.333-12.8 29.867-12.8s21.333 4.267 29.867 12.8l213.333 213.333c4.267 4.267 8.533 8.533 8.533 12.8z" />
<glyph unicode="&#xe988;" glyph-name="mail" d="M853.333 768h-682.667c-72.533 0-128-55.467-128-128v-512c0-72.533 55.467-128 128-128h682.667c72.533 0 128 55.467 128 128v512c0 72.533-55.467 128-128 128zM170.667 682.667h682.667c17.067 0 29.867-8.533 38.4-25.6l-379.733-264.533-379.733 264.533c8.533 17.067 21.333 25.6 38.4 25.6zM853.333 85.333h-682.667c-25.6 0-42.667 17.067-42.667 42.667v430.933l358.4-251.733c8.533-4.267 17.067-8.533 25.6-8.533s17.067 4.267 25.6 8.533l358.4 251.733v-430.933c0-25.6-17.067-42.667-42.667-42.667z" />
<glyph unicode="&#xe98f;" glyph-name="message-square" d="M810.667 810.667h-597.333c-72.533 0-128-55.467-128-128v-682.667c0-17.067 8.533-34.133 25.6-38.4 4.267-4.267 12.8-4.267 17.067-4.267 12.8 0 21.333 4.267 29.867 12.8l157.867 157.867h494.933c72.533 0 128 55.467 128 128v426.667c0 72.533-55.467 128-128 128zM853.333 256c0-25.6-17.067-42.667-42.667-42.667h-512c-12.8 0-21.333-4.267-29.867-12.8l-98.133-98.133v580.267c0 25.6 17.067 42.667 42.667 42.667h597.333c25.6 0 42.667-17.067 42.667-42.667v-426.667z" />
<glyph unicode="&#xe999;" glyph-name="more-horizontal" d="M597.333 384c0-47.128-38.205-85.333-85.333-85.333s-85.333 38.205-85.333 85.333c0 47.128 38.205 85.333 85.333 85.333s85.333-38.205 85.333-85.333zM896 384c0-47.128-38.205-85.333-85.333-85.333s-85.333 38.205-85.333 85.333c0 47.128 38.205 85.333 85.333 85.333s85.333-38.205 85.333-85.333zM298.667 384c0-47.128-38.205-85.333-85.333-85.333s-85.333 38.205-85.333 85.333c0 47.128 38.205 85.333 85.333 85.333s85.333-38.205 85.333-85.333z" />
<glyph unicode="&#xe9c2;" glyph-name="settings" d="M512 554.667c-93.867 0-170.667-76.8-170.667-170.667s76.8-170.667 170.667-170.667c93.867 0 170.667 76.8 170.667 170.667s-76.8 170.667-170.667 170.667zM512 298.667c-46.933 0-85.333 38.4-85.333 85.333s38.4 85.333 85.333 85.333c46.933 0 85.333-38.4 85.333-85.333s-38.4-85.333-85.333-85.333zM866.133 238.933c4.267 8.533 12.8 17.067 29.867 17.067 72.533 0 128 55.467 128 128s-55.467 128-128 128h-8.533c-8.533 0-17.067 4.267-21.333 12.8 0 4.267 0 4.267-4.267 8.533-4.267 8.533-4.267 21.333 8.533 34.133 51.2 51.2 51.2 132.267 0 179.2v0c0 0 0 0 0 0-25.6 25.6-55.467 38.4-89.6 38.4 0 0 0 0 0 0-34.133 0-68.267-12.8-93.867-38.4-8.533-8.533-21.333-8.533-29.867-4.267-8.533 0-17.067 12.8-17.067 25.6 0 72.533-55.467 128-128 128s-128-55.467-128-128v-8.533c0-8.533-4.267-17.067-12.8-21.333-4.267 0-4.267 0-8.533-4.267-8.533-4.267-21.333 0-34.133 8.533-51.2 51.2-132.267 51.2-179.2 0-51.2-51.2-51.2-132.267 4.267-183.467 8.533-8.533 8.533-21.333 4.267-34.133-4.267-8.533-17.067-17.067-29.867-17.067-72.533 0-128-55.467-128-128s55.467-128 128-128h8.533c12.8 0 21.333-8.533 25.6-17.067s4.267-21.333-8.533-34.133c-25.6-25.6-38.4-55.467-38.4-89.6s12.8-64 38.4-89.6c0 0 0 0 0 0 51.2-51.2 132.267-51.2 183.467 4.267 8.533 8.533 21.333 8.533 34.133 4.267s17.067-12.8 17.067-29.867c0-72.533 55.467-128 128-128s128 55.467 128 128v8.533c0 12.8 8.533 21.333 17.067 25.6s21.333 4.267 34.133-8.533c51.2-51.2 132.267-51.2 179.2 0 51.2 51.2 51.2 132.267-4.267 183.467-4.267 8.533-8.533 21.333-4.267 29.867 0 0 0 0 0 0zM789.333 273.067c-17.067-42.667-8.533-89.6 25.6-128 8.533-8.533 12.8-17.067 12.8-29.867s-4.267-21.333-12.8-29.867c-8.533-8.533-17.067-12.8-29.867-12.8 0 0 0 0 0 0-12.8 0-21.333 4.267-34.133 17.067-34.133 34.133-81.067 42.667-123.733 21.333-42.667-17.067-68.267-59.733-68.267-102.4v-8.533c0-25.6-17.067-42.667-42.667-42.667s-42.667 17.067-42.667 42.667c0 0 0 4.267 0 4.267 0 46.933-29.867 85.333-72.533 102.4-12.8 8.533-29.867 8.533-46.933 8.533-29.867 0-59.733-12.8-81.067-34.133-17.067-17.067-42.667-17.067-59.733 0 0 0 0 0 0 0v0c-8.533 8.533-12.8 17.067-12.8 29.867s4.267 21.333 17.067 34.133c34.133 34.133 42.667 81.067 21.333 123.733-17.067 42.667-59.733 68.267-102.4 68.267h-8.533c-25.6 0-42.667 17.067-42.667 42.667s17.067 42.667 42.667 42.667c0 0 4.267 0 4.267 0 46.933 0 85.333 29.867 102.4 72.533s8.533 89.6-25.6 128c-17.067 17.067-17.067 42.667 0 59.733s42.667 17.067 64-4.267c29.867-29.867 76.8-38.4 115.2-25.6 4.267 0 8.533 0 12.8 4.267 42.667 17.067 68.267 59.733 68.267 102.4v8.533c0 25.6 17.067 42.667 42.667 42.667s42.667-17.067 42.667-46.933c0-46.933 25.6-85.333 68.267-102.4s89.6-8.533 128 25.6c8.533 8.533 17.067 12.8 29.867 12.8v0c12.8 0 21.333-4.267 29.867-12.8 0 0 0 0 0 0 17.067-17.067 17.067-42.667-4.267-64-29.867-29.867-38.4-76.8-25.6-115.2 0-4.267 0-8.533 4.267-12.8 17.067-42.667 59.733-68.267 102.4-68.267h8.533c25.6 0 42.667-17.067 42.667-42.667s-17.067-42.667-46.933-42.667c-42.667 0-85.333-25.6-102.4-68.267z" />
<glyph unicode="&#xe9c3;" glyph-name="share" d="M853.333 426.667c-25.6 0-42.667-17.067-42.667-42.667v-341.333c0-25.6-17.067-42.667-42.667-42.667h-512c-25.6 0-42.667 17.067-42.667 42.667v341.333c0 25.6-17.067 42.667-42.667 42.667s-42.667-17.067-42.667-42.667v-341.333c0-72.533 55.467-128 128-128h512c72.533 0 128 55.467 128 128v341.333c0 25.6-17.067 42.667-42.667 42.667zM371.2 610.133l98.133 98.133v-452.267c0-25.6 17.067-42.667 42.667-42.667s42.667 17.067 42.667 42.667v452.267l98.133-98.133c8.533-8.533 17.067-12.8 29.867-12.8s21.333 4.267 29.867 12.8c17.067 17.067 17.067 42.667 0 59.733l-170.667 170.667c-4.267 4.267-8.533 8.533-12.8 8.533-8.533 4.267-21.333 4.267-34.133 0-4.267-4.267-8.533-4.267-12.8-8.533l-170.667-170.667c-17.067-17.067-17.067-42.667 0-59.733s42.667-17.067 59.733 0z" />
<glyph unicode="&#xe9cf;" glyph-name="sliders" d="M170.667 426.667c25.6 0 42.667 17.067 42.667 42.667v298.667c0 25.6-17.067 42.667-42.667 42.667s-42.667-17.067-42.667-42.667v-298.667c0-25.6 17.067-42.667 42.667-42.667zM512 426.667c-25.6 0-42.667-17.067-42.667-42.667v-384c0-25.6 17.067-42.667 42.667-42.667s42.667 17.067 42.667 42.667v384c0 25.6-17.067 42.667-42.667 42.667zM853.333 341.333c25.6 0 42.667 17.067 42.667 42.667v384c0 25.6-17.067 42.667-42.667 42.667s-42.667-17.067-42.667-42.667v-384c0-25.6 17.067-42.667 42.667-42.667zM298.667 341.333h-256c-25.6 0-42.667-17.067-42.667-42.667s17.067-42.667 42.667-42.667h85.333v-256c0-25.6 17.067-42.667 42.667-42.667s42.667 17.067 42.667 42.667v256h85.333c25.6 0 42.667 17.067 42.667 42.667s-17.067 42.667-42.667 42.667zM640 597.333h-85.333v170.667c0 25.6-17.067 42.667-42.667 42.667s-42.667-17.067-42.667-42.667v-170.667h-85.333c-25.6 0-42.667-17.067-42.667-42.667s17.067-42.667 42.667-42.667h256c25.6 0 42.667 17.067 42.667 42.667s-17.067 42.667-42.667 42.667zM981.333 256h-256c-25.6 0-42.667-17.067-42.667-42.667s17.067-42.667 42.667-42.667h85.333v-170.667c0-25.6 17.067-42.667 42.667-42.667s42.667 17.067 42.667 42.667v170.667h85.333c25.6 0 42.667 17.067 42.667 42.667s-17.067 42.667-42.667 42.667z" />
<glyph unicode="&#xe9ef;" glyph-name="user" d="M682.667 298.667h-341.333c-119.467 0-213.333-93.867-213.333-213.333v-85.333c0-25.6 17.067-42.667 42.667-42.667s42.667 17.067 42.667 42.667v85.333c0 72.533 55.467 128 128 128h341.333c72.533 0 128-55.467 128-128v-85.333c0-25.6 17.067-42.667 42.667-42.667s42.667 17.067 42.667 42.667v85.333c0 119.467-93.867 213.333-213.333 213.333zM512 384c119.467 0 213.333 93.867 213.333 213.333s-93.867 213.333-213.333 213.333-213.333-93.867-213.333-213.333 93.867-213.333 213.333-213.333zM512 725.333c72.533 0 128-55.467 128-128s-55.467-128-128-128-128 55.467-128 128 55.467 128 128 128z" />
<glyph unicode="&#xea88;" glyph-name="google" d="M520.925 448.050v-153.649h254.1c-10.324-65.974-76.826-193.2-254.1-193.2-152.951 0-277.725 126.701-277.725 282.799s124.774 282.799 277.725 282.799c86.974 0 145.249-37.099 178.5-69.124l121.624 117.075c-78.049 73.151-179.201 117.251-300.124 117.251-247.624 0-448.001-200.374-448.001-448.001s200.374-448.001 448.001-448.001c258.476 0 430.151 181.826 430.151 437.674 0 29.4-3.15 51.799-7.001 74.201l-423.15 0.176z" />
<glyph unicode="&#xea90;" glyph-name="facebook" d="M600 677.334h146.666v176h-146.666c-113.222 0-205.334-92.112-205.334-205.334v-88h-117.334v-176h117.334v-469.334h176v469.334h146.666l29.334 176h-176v88c0 15.9 13.432 29.334 29.334 29.334z" />
<glyph unicode="&#xea96;" glyph-name="twitter" d="M997.744 654.954c-35.672-15.938-74.19-26.564-114.415-31.308 41.174 24.667 72.672 63.754 87.662 110.241-38.518-22.769-81.21-39.467-126.559-48.385-36.431 38.708-88.231 62.805-145.533 62.805-110.051 0-199.231-89.179-199.231-199.231 0-15.559 1.708-30.738 5.123-45.349-165.646 8.349-312.508 87.662-410.795 208.338-17.077-29.41-26.944-63.754-26.944-100.185 0-69.067 35.103-130.164 88.61-165.836-32.636 0.949-63.374 10.056-90.318 24.856 0-0.759 0-1.708 0-2.467 0-96.579 68.687-177.221 159.954-195.436-16.697-4.554-34.344-7.021-52.559-7.021-12.903 0-25.236 1.328-37.569 3.605 25.426-79.123 99.046-136.805 186.138-138.513-68.308-53.508-154.072-85.385-247.615-85.385-16.128 0-31.877 0.949-47.626 2.846 88.421-56.733 193.159-89.559 305.677-89.559 366.585 0 567.144 303.779 567.144 567.144 0 8.728-0.19 17.267-0.569 25.805 38.897 27.892 72.672 62.995 99.426 103.031z" />
<glyph unicode="&#xeaca;" glyph-name="linkedin" d="M384 512h177.106v-90.782h2.532c24.64 44.194 84.958 90.782 174.842 90.782 186.946 0 221.52-116.376 221.52-267.734v-308.266h-184.61v273.278c0 65.184-1.334 149.026-96.028 149.026-96.148 0-110.82-70.986-110.82-144.292v-278.012h-184.542v576zM64 512h192v-576h-192v576zM256 672c0-53.019-42.981-96-96-96s-96 42.981-96 96c0 53.019 42.981 96 96 96s96-42.981 96-96z" />
<glyph unicode="" glyph-name="linkedin" d="M384 512h177.106v-90.782h2.532c24.64 44.194 84.958 90.782 174.842 90.782 186.946 0 221.52-116.376 221.52-267.734v-308.266h-184.61v273.278c0 65.184-1.334 149.026-96.028 149.026-96.148 0-110.82-70.986-110.82-144.292v-278.012h-184.542v576zM64 512h192v-576h-192v576zM256 672c0-53.019-42.981-96-96-96s-96 42.981-96 96c0 53.019 42.981 96 96 96s96-42.981 96-96z" />
<glyph unicode="twitter" glyph-name="twitter" d="M997.744 654.954c-35.672-15.938-74.19-26.564-114.415-31.308 41.174 24.667 72.672 63.754 87.662 110.241-38.518-22.769-81.21-39.467-126.559-48.385-36.431 38.708-88.231 62.805-145.533 62.805-110.051 0-199.231-89.179-199.231-199.231 0-15.559 1.708-30.738 5.123-45.349-165.646 8.349-312.508 87.662-410.795 208.338-17.077-29.41-26.944-63.754-26.944-100.185 0-69.067 35.103-130.164 88.61-165.836-32.636 0.949-63.374 10.056-90.318 24.856 0-0.759 0-1.708 0-2.467 0-96.579 68.687-177.221 159.954-195.436-16.697-4.554-34.344-7.021-52.559-7.021-12.903 0-25.236 1.328-37.569 3.605 25.426-79.123 99.046-136.805 186.138-138.513-68.308-53.508-154.072-85.385-247.615-85.385-16.128 0-31.877 0.949-47.626 2.846 88.421-56.733 193.159-89.559 305.677-89.559 366.585 0 567.144 303.779 567.144 567.144 0 8.728-0.19 17.267-0.569 25.805 38.897 27.892 72.672 62.995 99.426 103.031z" />
<glyph unicode="linkedin2" glyph-name="linkedin" d="M384 512h177.106v-90.782h2.532c24.64 44.194 84.958 90.782 174.842 90.782 186.946 0 221.52-116.376 221.52-267.734v-308.266h-184.61v273.278c0 65.184-1.334 149.026-96.028 149.026-96.148 0-110.82-70.986-110.82-144.292v-278.012h-184.542v576zM64 512h192v-576h-192v576zM256 672c0-53.019-42.981-96-96-96s-96 42.981-96 96c0 53.019 42.981 96 96 96s96-42.981 96-96z" />
<glyph unicode="google" glyph-name="google" d="M520.925 448.050v-153.649h254.1c-10.324-65.974-76.826-193.2-254.1-193.2-152.951 0-277.725 126.701-277.725 282.799s124.774 282.799 277.725 282.799c86.974 0 145.249-37.099 178.5-69.124l121.624 117.075c-78.049 73.151-179.201 117.251-300.124 117.251-247.624 0-448.001-200.374-448.001-448.001s200.374-448.001 448.001-448.001c258.476 0 430.151 181.826 430.151 437.674 0 29.4-3.15 51.799-7.001 74.201l-423.15 0.176z" />
<glyph unicode="facebook" glyph-name="facebook" d="M600 677.334h146.666v176h-146.666c-113.222 0-205.334-92.112-205.334-205.334v-88h-117.334v-176h117.334v-469.334h176v469.334h146.666l29.334 176h-176v88c0 15.9 13.432 29.334 29.334 29.334z" />
<glyph unicode="brand65" glyph-name="linkedin" d="M384 512h177.106v-90.782h2.532c24.64 44.194 84.958 90.782 174.842 90.782 186.946 0 221.52-116.376 221.52-267.734v-308.266h-184.61v273.278c0 65.184-1.334 149.026-96.028 149.026-96.148 0-110.82-70.986-110.82-144.292v-278.012h-184.542v576zM64 512h192v-576h-192v576zM256 672c0-53.019-42.981-96-96-96s-96 42.981-96 96c0 53.019 42.981 96 96 96s96-42.981 96-96z" />
<glyph unicode="brand2" glyph-name="google" d="M520.925 448.050v-153.649h254.1c-10.324-65.974-76.826-193.2-254.1-193.2-152.951 0-277.725 126.701-277.725 282.799s124.774 282.799 277.725 282.799c86.974 0 145.249-37.099 178.5-69.124l121.624 117.075c-78.049 73.151-179.201 117.251-300.124 117.251-247.624 0-448.001-200.374-448.001-448.001s200.374-448.001 448.001-448.001c258.476 0 430.151 181.826 430.151 437.674 0 29.4-3.15 51.799-7.001 74.201l-423.15 0.176z" />
<glyph unicode="brand16" glyph-name="twitter" d="M997.744 654.954c-35.672-15.938-74.19-26.564-114.415-31.308 41.174 24.667 72.672 63.754 87.662 110.241-38.518-22.769-81.21-39.467-126.559-48.385-36.431 38.708-88.231 62.805-145.533 62.805-110.051 0-199.231-89.179-199.231-199.231 0-15.559 1.708-30.738 5.123-45.349-165.646 8.349-312.508 87.662-410.795 208.338-17.077-29.41-26.944-63.754-26.944-100.185 0-69.067 35.103-130.164 88.61-165.836-32.636 0.949-63.374 10.056-90.318 24.856 0-0.759 0-1.708 0-2.467 0-96.579 68.687-177.221 159.954-195.436-16.697-4.554-34.344-7.021-52.559-7.021-12.903 0-25.236 1.328-37.569 3.605 25.426-79.123 99.046-136.805 186.138-138.513-68.308-53.508-154.072-85.385-247.615-85.385-16.128 0-31.877 0.949-47.626 2.846 88.421-56.733 193.159-89.559 305.677-89.559 366.585 0 567.144 303.779 567.144 567.144 0 8.728-0.19 17.267-0.569 25.805 38.897 27.892 72.672 62.995 99.426 103.031z" />
<glyph unicode="brand10" glyph-name="facebook" d="M600 677.334h146.666v176h-146.666c-113.222 0-205.334-92.112-205.334-205.334v-88h-117.334v-176h117.334v-469.334h176v469.334h146.666l29.334 176h-176v88c0 15.9 13.432 29.334 29.334 29.334z" />
</font>
</defs>
</svg>
