<svg width="164" height="43" viewBox="0 0 164 43" fill="none" xmlns="http://www.w3.org/2000/svg">
<path d="M14.6306 16.9999H10.0466L5.12659 8.43192L3.92659 6.03192H3.90259L3.99859 9.00792V16.9999H0.350586V1.15992H4.93459L9.85459 9.72792L11.0546 12.1279H11.0786L10.9826 9.15192V1.15992H14.6306V16.9999Z" fill="#3503B3"/>
<path d="M25.8997 0.919922C27.4997 0.919922 28.8756 1.24792 30.0276 1.90392C31.1956 2.54392 32.0916 3.47992 32.7156 4.71192C33.3396 5.92792 33.6516 7.38392 33.6516 9.07992C33.6516 10.7759 33.3396 12.2399 32.7156 13.4719C32.0916 14.6879 31.1956 15.6239 30.0276 16.2799C28.8756 16.9199 27.4997 17.2399 25.8997 17.2399C24.2997 17.2399 22.9156 16.9199 21.7477 16.2799C20.5797 15.6239 19.6837 14.6879 19.0597 13.4719C18.4356 12.2399 18.1236 10.7759 18.1236 9.07992C18.1236 7.38392 18.4356 5.92792 19.0597 4.71192C19.6837 3.47992 20.5797 2.54392 21.7477 1.90392C22.9156 1.24792 24.2997 0.919922 25.8997 0.919922ZM25.8997 4.15992C24.7477 4.15992 23.8676 4.57592 23.2596 5.40792C22.6516 6.23992 22.3476 7.46392 22.3476 9.07992C22.3476 10.6959 22.6516 11.9199 23.2596 12.7519C23.8676 13.5839 24.7477 13.9999 25.8997 13.9999C27.0517 13.9999 27.9236 13.5839 28.5156 12.7519C29.1236 11.9199 29.4277 10.6959 29.4277 9.07992C29.4277 7.46392 29.1236 6.23992 28.5156 5.40792C27.9236 4.57592 27.0517 4.15992 25.8997 4.15992Z" fill="#3503B3"/>
<path d="M44.867 11.2159H42.395V16.9999H38.339V1.15992H45.899C47.819 1.15992 49.291 1.59192 50.315 2.45592C51.355 3.31992 51.875 4.56792 51.875 6.19992C51.875 7.35192 51.611 8.31192 51.083 9.07992C50.555 9.84792 49.787 10.4159 48.779 10.7839L52.811 16.9999H48.251L44.867 11.2159ZM42.395 8.28792H45.203C46.083 8.28792 46.723 8.12792 47.123 7.80792C47.523 7.48792 47.723 6.97592 47.723 6.27192C47.723 5.58392 47.523 5.07992 47.123 4.75992C46.723 4.43992 46.083 4.27992 45.203 4.27992H42.395V8.28792Z" fill="#3503B3"/>
<path d="M70.9463 4.35192H65.7863V16.9999H61.6583V4.35192H56.4743V1.15992H70.9463V4.35192Z" fill="#3503B3"/>
<path d="M89.53 1.15992V16.9999H85.402V10.6159H79.354V16.9999H75.226V1.15992H79.354V7.42392H85.402V1.15992H89.53Z" fill="#3503B3"/>
<path d="M15.0626 37.4639C14.6146 39.0639 13.7826 40.2639 12.5666 41.0639C11.3506 41.8479 9.87059 42.2399 8.12659 42.2399C6.52659 42.2399 5.14259 41.9199 3.97459 41.2799C2.80659 40.6239 1.91059 39.6879 1.28659 38.4719C0.662586 37.2399 0.350586 35.7759 0.350586 34.0799C0.350586 32.3999 0.662586 30.9439 1.28659 29.7119C1.91059 28.4799 2.80659 27.5439 3.97459 26.9039C5.14259 26.2479 6.51859 25.9199 8.10259 25.9199C9.83059 25.9199 11.2946 26.2879 12.4946 27.0239C13.6946 27.7439 14.4866 28.8319 14.8706 30.2879L11.2466 31.7519C11.0226 30.7919 10.6786 30.1199 10.2146 29.7359C9.75059 29.3519 9.09459 29.1599 8.24659 29.1599C7.07859 29.1599 6.17459 29.5839 5.53459 30.4319C4.89459 31.2639 4.57459 32.4799 4.57459 34.0799C4.57459 35.6799 4.87859 36.9039 5.48659 37.7519C6.11059 38.5839 7.00659 38.9999 8.17459 38.9999C9.05459 38.9999 9.75059 38.7919 10.2626 38.3759C10.7746 37.9599 11.1266 37.3039 11.3186 36.4079L15.0626 37.4639Z" fill="#3503B3"/>
<path d="M25.8997 25.9199C27.4997 25.9199 28.8756 26.2479 30.0276 26.9039C31.1956 27.5439 32.0916 28.4799 32.7156 29.7119C33.3396 30.9279 33.6516 32.3839 33.6516 34.0799C33.6516 35.7759 33.3396 37.2399 32.7156 38.4719C32.0916 39.6879 31.1956 40.6239 30.0276 41.2799C28.8756 41.9199 27.4997 42.2399 25.8997 42.2399C24.2997 42.2399 22.9156 41.9199 21.7477 41.2799C20.5797 40.6239 19.6837 39.6879 19.0597 38.4719C18.4356 37.2399 18.1236 35.7759 18.1236 34.0799C18.1236 32.3839 18.4356 30.9279 19.0597 29.7119C19.6837 28.4799 20.5797 27.5439 21.7477 26.9039C22.9156 26.2479 24.2997 25.9199 25.8997 25.9199ZM25.8997 29.1599C24.7477 29.1599 23.8676 29.5759 23.2596 30.4079C22.6516 31.2399 22.3476 32.4639 22.3476 34.0799C22.3476 35.6959 22.6516 36.9199 23.2596 37.7519C23.8676 38.5839 24.7477 38.9999 25.8997 38.9999C27.0517 38.9999 27.9236 38.5839 28.5156 37.7519C29.1236 36.9199 29.4277 35.6959 29.4277 34.0799C29.4277 32.4639 29.1236 31.2399 28.5156 30.4079C27.9236 29.5759 27.0517 29.1599 25.8997 29.1599Z" fill="#3503B3"/>
<path d="M50.411 38.8079V41.9999H38.339V26.1599H42.467V38.8079H50.411Z" fill="#3503B3"/>
<path d="M66.3233 38.8079V41.9999H54.2513V26.1599H58.3793V38.8079H66.3233Z" fill="#3503B3"/>
<path d="M83.2568 38.8079V41.9999H70.6088V26.1599H82.9448V29.3519H74.7368V32.5679H81.2648V35.5679H74.7368V38.8079H83.2568Z" fill="#3503B3"/>
<path d="M101.569 37.4639C101.121 39.0639 100.289 40.2639 99.0728 41.0639C97.8568 41.8479 96.3768 42.2399 94.6328 42.2399C93.0328 42.2399 91.6488 41.9199 90.4808 41.2799C89.3128 40.6239 88.4168 39.6879 87.7928 38.4719C87.1688 37.2399 86.8568 35.7759 86.8568 34.0799C86.8568 32.3999 87.1688 30.9439 87.7928 29.7119C88.4168 28.4799 89.3128 27.5439 90.4808 26.9039C91.6488 26.2479 93.0248 25.9199 94.6088 25.9199C96.3368 25.9199 97.8008 26.2879 99.0008 27.0239C100.201 27.7439 100.993 28.8319 101.377 30.2879L97.7528 31.7519C97.5288 30.7919 97.1848 30.1199 96.7208 29.7359C96.2568 29.3519 95.6008 29.1599 94.7528 29.1599C93.5848 29.1599 92.6808 29.5839 92.0408 30.4319C91.4008 31.2639 91.0808 32.4799 91.0808 34.0799C91.0808 35.6799 91.3848 36.9039 91.9928 37.7519C92.6168 38.5839 93.5128 38.9999 94.6808 38.9999C95.5608 38.9999 96.2568 38.7919 96.7688 38.3759C97.2808 37.9599 97.6328 37.3039 97.8248 36.4079L101.569 37.4639Z" fill="#3503B3"/>
<path d="M119.105 29.3519H113.945V41.9999H109.817V29.3519H104.633V26.1599H119.105V29.3519Z" fill="#3503B3"/>
<path d="M127.512 41.9999H123.384V26.1599H127.512V41.9999Z" fill="#3503B3"/>
<path d="M141.825 41.9999H136.977L131.337 26.1599H135.681L138.585 35.7359L139.449 38.8559L140.289 35.7839L143.241 26.1599H147.441L141.825 41.9999Z" fill="#3503B3"/>
<path d="M163.896 38.8079V41.9999H151.248V26.1599H163.584V29.3519H155.376V32.5679H161.904V35.5679H155.376V38.8079H163.896Z" fill="#3503B3"/>
</svg>
