<svg width="188" height="33" viewBox="0 0 188 33" fill="none" xmlns="http://www.w3.org/2000/svg">
<path d="M25.4062 3.34375C26.8438 3.40625 28.1667 3.4375 29.375 3.4375C30.3854 3.4375 31.2083 3.40625 31.8438 3.34375V3.98438C30.5938 4.46354 29.6562 5.73438 29.0312 7.79688L23.3906 26.0625C23.1615 26.0417 22.7865 26.0312 22.2656 26.0312C21.7552 26.0312 21.3854 26.0417 21.1562 26.0625L16.4375 11.7969L11.7188 26.0625C11.4792 26.0417 11.1042 26.0312 10.5938 26.0312C10.0833 26.0312 9.70833 26.0417 9.46875 26.0625L2.29688 6.03125C2.05729 5.33333 1.75 4.82292 1.375 4.5C1.01042 4.17708 0.645833 4.00521 0.28125 3.98438V3.34375C1.5625 3.40625 3.15625 3.4375 5.0625 3.4375C6.85417 3.4375 8.16146 3.40625 8.98438 3.34375V3.98438C8.24479 4.07812 7.875 4.49479 7.875 5.23438C7.875 5.63021 7.96875 6.10938 8.15625 6.67188L12.8281 20.1719L16.0781 10.6719L14.4375 5.71875C14.2292 5.09375 13.9792 4.65625 13.6875 4.40625C13.3958 4.15625 13.0573 4.01562 12.6719 3.98438V3.34375C13.8594 3.40625 15.3854 3.4375 17.25 3.4375C19.3229 3.4375 20.8594 3.40625 21.8594 3.34375V3.98438C21.0781 4.00521 20.5208 4.09375 20.1875 4.25C19.8542 4.40625 19.6875 4.71354 19.6875 5.17188C19.6875 5.51562 19.7917 6.01562 20 6.67188L24.375 20.0625L27.4219 10.3906C27.901 8.82812 28.1406 7.58333 28.1406 6.65625C28.1406 5.72917 27.9115 5.0625 27.4531 4.65625C27.0052 4.23958 26.3229 4.01562 25.4062 3.98438V3.34375ZM38.4062 9.01562C40.8438 9.01562 42.7552 9.71354 44.1406 11.1094C45.5365 12.5052 46.2344 14.7188 46.2344 17.75C46.2344 20.7708 45.5365 22.9792 44.1406 24.375C42.7552 25.7604 40.8438 26.4531 38.4062 26.4531C35.9688 26.4531 34.0521 25.7604 32.6562 24.375C31.2604 22.9792 30.5625 20.7708 30.5625 17.75C30.5625 14.7292 31.2604 12.5208 32.6562 11.125C34.0521 9.71875 35.9688 9.01562 38.4062 9.01562ZM38.4062 9.64062C37.4896 9.64062 36.7552 10.3073 36.2031 11.6406C35.6615 12.974 35.3906 15.0104 35.3906 17.75C35.3906 20.4792 35.6615 22.5052 36.2031 23.8281C36.7552 25.151 37.4896 25.8125 38.4062 25.8125C39.3333 25.8125 40.0625 25.1562 40.5938 23.8438C41.1354 22.5208 41.4062 20.4896 41.4062 17.75C41.4062 15 41.1354 12.9635 40.5938 11.6406C40.0625 10.3073 39.3333 9.64062 38.4062 9.64062ZM54.8906 12.0781C55.2969 11.1719 55.8802 10.4375 56.6406 9.875C57.4115 9.30208 58.2812 9.01562 59.25 9.01562C59.8958 9.01562 60.4375 9.15625 60.875 9.4375C61.3125 9.71875 61.6354 10.0833 61.8438 10.5312C62.0521 10.9688 62.1562 11.4427 62.1562 11.9531C62.1562 12.7448 61.9271 13.3906 61.4688 13.8906C61.0104 14.3906 60.4062 14.6406 59.6562 14.6406C58.9271 14.6406 58.349 14.4583 57.9219 14.0938C57.5052 13.7188 57.2969 13.2188 57.2969 12.5938C57.2969 11.5729 57.7656 10.7396 58.7031 10.0938C58.5677 10.0625 58.4375 10.0469 58.3125 10.0469C58.1667 10.0469 58 10.0729 57.8125 10.125C57.2708 10.2083 56.776 10.4688 56.3281 10.9062C55.8802 11.3333 55.526 11.849 55.2656 12.4531C55.0156 13.0573 54.8906 13.6458 54.8906 14.2188V22.7031C54.8906 23.6927 55.1302 24.3802 55.6094 24.7656C56.0885 25.1406 56.8542 25.3281 57.9062 25.3281V26C55.2396 25.9167 53.5417 25.875 52.8125 25.875C52.1354 25.875 50.6094 25.9167 48.2344 26V25.3281C48.7448 25.3281 49.1458 25.2604 49.4375 25.125C49.7396 24.9896 49.9531 24.7552 50.0781 24.4219C50.2135 24.0885 50.2812 23.625 50.2812 23.0312V12.9375C50.2812 11.9479 50.1302 11.2344 49.8281 10.7969C49.526 10.349 48.9948 10.125 48.2344 10.125V9.45312C48.9115 9.51562 49.5729 9.54688 50.2188 9.54688C52.1042 9.54688 53.6615 9.40104 54.8906 9.10938V12.0781ZM68.8594 23.0312C68.8594 23.625 68.9219 24.0885 69.0469 24.4219C69.1823 24.7552 69.3958 24.9896 69.6875 25.125C69.9896 25.2604 70.3958 25.3281 70.9062 25.3281V26C68.6979 25.9167 67.2708 25.875 66.625 25.875C65.8854 25.875 64.4115 25.9167 62.2031 26V25.3281C62.7135 25.3281 63.1146 25.2604 63.4062 25.125C63.6979 24.9896 63.9115 24.7552 64.0469 24.4219C64.1823 24.0885 64.25 23.625 64.25 23.0312V4.78125C64.25 3.79167 64.0938 3.07812 63.7812 2.64062C63.4792 2.19271 62.9531 1.96875 62.2031 1.96875V1.29688C62.8802 1.35938 63.5417 1.39062 64.1875 1.39062C66.0625 1.39062 67.6198 1.23958 68.8594 0.9375V23.0312ZM87.75 22.4844C87.75 23.474 87.8958 24.1927 88.1875 24.6406C88.4896 25.0781 89.026 25.2969 89.7969 25.2969V25.9688C89.1198 25.9062 88.4583 25.875 87.8125 25.875C85.9271 25.875 84.3698 26.0208 83.1406 26.3125V23.5625C82.4219 25.4896 81.0365 26.4531 78.9844 26.4531C77.6823 26.4531 76.5365 26.1406 75.5469 25.5156C74.5677 24.8802 73.8021 23.9062 73.25 22.5938C72.7083 21.2708 72.4427 19.6198 72.4531 17.6406C72.4427 15.7656 72.7396 14.1823 73.3438 12.8906C73.9583 11.599 74.8021 10.6302 75.875 9.98438C76.9583 9.33854 78.1979 9.01562 79.5938 9.01562C81.1667 9.01562 82.349 9.41667 83.1406 10.2188V4.78125C83.1406 3.79167 82.9844 3.07812 82.6719 2.64062C82.3698 2.19271 81.8438 1.96875 81.0938 1.96875V1.29688C81.7708 1.35938 82.4323 1.39062 83.0781 1.39062C84.9531 1.39062 86.5104 1.23958 87.75 0.9375V22.4844ZM83.1406 11.0312C82.599 10.3021 81.8177 9.9375 80.7969 9.9375C79.6719 9.9375 78.8021 10.5885 78.1875 11.8906C77.5729 13.1927 77.2708 15.1354 77.2812 17.7188C77.25 22.625 78.2552 25.0781 80.2969 25.0781C80.7552 25.0781 81.1875 24.9635 81.5938 24.7344C82 24.5052 82.3385 24.1771 82.6094 23.75C82.8906 23.3125 83.0677 22.8073 83.1406 22.2344V11.0312ZM97.9844 11.2188C98.0573 10.5104 98.0938 9.69792 98.0938 8.78125C98.0938 7.32292 98.0156 5.51042 97.8594 3.34375C99.8073 3.40625 103.104 3.4375 107.75 3.4375C112.396 3.4375 115.682 3.40625 117.609 3.34375C117.453 5.51042 117.375 7.32292 117.375 8.78125C117.375 9.69792 117.411 10.5104 117.484 11.2188H116.75C116.396 9.4375 115.964 8.03125 115.453 7C114.943 5.95833 114.328 5.21354 113.609 4.76562C112.901 4.30729 112.036 4.07812 111.016 4.07812H110.281V22.3594C110.281 23.2448 110.37 23.8906 110.547 24.2969C110.734 24.7031 111.057 24.9792 111.516 25.125C111.984 25.2708 112.714 25.349 113.703 25.3594V26C111.016 25.9375 108.99 25.9062 107.625 25.9062C106.281 25.9062 104.328 25.9375 101.766 26V25.3594C102.766 25.349 103.495 25.2708 103.953 25.125C104.422 24.9792 104.745 24.7031 104.922 24.2969C105.099 23.8906 105.188 23.2448 105.188 22.3594V4.07812H104.484C103.453 4.07812 102.578 4.30208 101.859 4.75C101.151 5.19792 100.542 5.94271 100.031 6.98438C99.5208 8.01562 99.0833 9.42708 98.7188 11.2188H97.9844ZM126.156 9.01562C128.594 9.01562 130.505 9.71354 131.891 11.1094C133.286 12.5052 133.984 14.7188 133.984 17.75C133.984 20.7708 133.286 22.9792 131.891 24.375C130.505 25.7604 128.594 26.4531 126.156 26.4531C123.719 26.4531 121.802 25.7604 120.406 24.375C119.01 22.9792 118.312 20.7708 118.312 17.75C118.312 14.7292 119.01 12.5208 120.406 11.125C121.802 9.71875 123.719 9.01562 126.156 9.01562ZM126.156 9.64062C125.24 9.64062 124.505 10.3073 123.953 11.6406C123.411 12.974 123.141 15.0104 123.141 17.75C123.141 20.4792 123.411 22.5052 123.953 23.8281C124.505 25.151 125.24 25.8125 126.156 25.8125C127.083 25.8125 127.812 25.1562 128.344 23.8438C128.885 22.5208 129.156 20.4896 129.156 17.75C129.156 15 128.885 12.9635 128.344 11.6406C127.812 10.3073 127.083 9.64062 126.156 9.64062ZM151.75 22.4844C151.75 23.474 151.896 24.1927 152.188 24.6406C152.49 25.0781 153.026 25.2969 153.797 25.2969V25.9688C153.12 25.9062 152.458 25.875 151.812 25.875C149.927 25.875 148.37 26.0208 147.141 26.3125V23.5625C146.422 25.4896 145.036 26.4531 142.984 26.4531C141.682 26.4531 140.536 26.1406 139.547 25.5156C138.568 24.8802 137.802 23.9062 137.25 22.5938C136.708 21.2708 136.443 19.6198 136.453 17.6406C136.443 15.7656 136.74 14.1823 137.344 12.8906C137.958 11.599 138.802 10.6302 139.875 9.98438C140.958 9.33854 142.198 9.01562 143.594 9.01562C145.167 9.01562 146.349 9.41667 147.141 10.2188V4.78125C147.141 3.79167 146.984 3.07812 146.672 2.64062C146.37 2.19271 145.844 1.96875 145.094 1.96875V1.29688C145.771 1.35938 146.432 1.39062 147.078 1.39062C148.953 1.39062 150.51 1.23958 151.75 0.9375V22.4844ZM147.141 11.0312C146.599 10.3021 145.818 9.9375 144.797 9.9375C143.672 9.9375 142.802 10.5885 142.188 11.8906C141.573 13.1927 141.271 15.1354 141.281 17.7188C141.25 22.625 142.255 25.0781 144.297 25.0781C144.755 25.0781 145.188 24.9635 145.594 24.7344C146 24.5052 146.339 24.1771 146.609 23.75C146.891 23.3125 147.068 22.8073 147.141 22.2344V11.0312ZM164 12.5C164 11.6146 163.786 10.9167 163.359 10.4062C162.943 9.89583 162.286 9.64062 161.391 9.64062C160.974 9.64062 160.557 9.70833 160.141 9.84375C159.724 9.96875 159.38 10.1615 159.109 10.4219C159.703 10.6198 160.167 10.9323 160.5 11.3594C160.833 11.776 161 12.3021 161 12.9375C161 13.375 160.891 13.7708 160.672 14.125C160.464 14.4688 160.161 14.7448 159.766 14.9531C159.37 15.151 158.917 15.25 158.406 15.25C157.719 15.25 157.167 15.0156 156.75 14.5469C156.344 14.0781 156.141 13.4896 156.141 12.7812C156.141 11.6771 156.734 10.7812 157.922 10.0938C159.224 9.375 160.849 9.01562 162.797 9.01562C164.984 9.01562 166.542 9.49479 167.469 10.4531C167.917 10.901 168.219 11.4583 168.375 12.125C168.531 12.7917 168.609 13.724 168.609 14.9219V23.625C168.609 24.1458 168.656 24.5156 168.75 24.7344C168.854 24.9427 169.031 25.0469 169.281 25.0469C169.625 25.0469 170.021 24.8646 170.469 24.5L170.797 25.0469C170.307 25.4531 169.776 25.75 169.203 25.9375C168.63 26.125 167.943 26.2188 167.141 26.2188C166.057 26.2188 165.276 25.9792 164.797 25.5C164.318 25.0208 164.078 24.3958 164.078 23.625C163.557 24.4896 162.875 25.1406 162.031 25.5781C161.188 26.0052 160.286 26.2188 159.328 26.2188C158.109 26.2188 157.13 25.901 156.391 25.2656C155.661 24.6198 155.297 23.724 155.297 22.5781C155.297 21.4635 155.661 20.5417 156.391 19.8125C157.12 19.0833 158.25 18.4375 159.781 17.875C159.948 17.8125 160.49 17.6094 161.406 17.2656C162.323 16.9115 162.984 16.5521 163.391 16.1875C163.797 15.8229 164 15.4219 164 14.9844V12.5ZM164 16.2969C163.865 16.526 163.641 16.7656 163.328 17.0156C163.026 17.2552 162.589 17.5521 162.016 17.9062C161.339 18.375 160.807 18.9062 160.422 19.5C160.036 20.0833 159.844 20.8125 159.844 21.6875C159.844 22.5208 160.026 23.1458 160.391 23.5625C160.755 23.9688 161.234 24.1719 161.828 24.1719C162.672 24.1719 163.396 23.7344 164 22.8594V16.2969ZM181.547 9.45312C182.547 9.51562 183.583 9.54688 184.656 9.54688C185.729 9.54688 186.552 9.51562 187.125 9.45312V10.0938C186.677 10.2083 186.271 10.474 185.906 10.8906C185.552 11.3073 185.219 11.9583 184.906 12.8438L179.188 28.9375C178.76 30.0521 178.292 30.8125 177.781 31.2188C177.156 31.75 176.224 32.0156 174.984 32.0156C174.432 32.0156 173.885 31.9219 173.344 31.7344C172.812 31.5573 172.37 31.276 172.016 30.8906C171.672 30.5052 171.5 30.026 171.5 29.4531C171.5 28.7969 171.734 28.2708 172.203 27.875C172.672 27.4792 173.292 27.2812 174.062 27.2812C174.781 27.2812 175.359 27.4583 175.797 27.8125C176.245 28.1667 176.469 28.6615 176.469 29.2969C176.469 29.7344 176.323 30.1406 176.031 30.5156C175.75 30.901 175.359 31.1875 174.859 31.375C175.016 31.3958 175.26 31.4062 175.594 31.4062C176.927 31.4062 177.901 30.5625 178.516 28.875L179.031 27.3438L172.234 11.9219C171.901 11.1823 171.568 10.6979 171.234 10.4688C170.911 10.2396 170.583 10.125 170.25 10.125V9.45312C171.656 9.57812 173.12 9.64062 174.641 9.64062C175.901 9.64062 177.385 9.57812 179.094 9.45312V10.125C178.635 10.125 178.276 10.1406 178.016 10.1719C177.755 10.2031 177.531 10.2812 177.344 10.4062C177.167 10.5312 177.078 10.7344 177.078 11.0156C177.078 11.2656 177.151 11.5677 177.297 11.9219L181.219 21.375L183.406 15.2188C183.75 14.1979 183.922 13.3438 183.922 12.6562C183.922 11.8438 183.714 11.2292 183.297 10.8125C182.88 10.3854 182.297 10.1458 181.547 10.0938V9.45312Z" fill="#333333"/>
</svg>
