<svg width="227" height="38" viewBox="0 0 227 38" fill="none" xmlns="http://www.w3.org/2000/svg">
<path d="M137.277 17.8009C137.347 17.1175 137.382 16.3335 137.382 15.4491C137.382 14.042 137.307 12.2933 137.156 10.2028C139.036 10.2631 142.217 10.2932 146.699 10.2932C151.182 10.2932 154.353 10.2631 156.212 10.2028C156.061 12.2933 155.986 14.042 155.986 15.4491C155.986 16.3335 156.021 17.1175 156.091 17.8009H155.383C155.041 16.0823 154.624 14.7255 154.131 13.7305C153.639 12.7254 153.046 12.0068 152.353 11.5746C151.669 11.1324 150.835 10.9113 149.85 10.9113H149.141V28.5499C149.141 29.4042 149.227 30.0273 149.398 30.4193C149.579 30.8112 149.89 31.0776 150.332 31.2183C150.785 31.359 151.488 31.4343 152.443 31.4444V32.0625C149.85 32.0022 147.895 31.972 146.579 31.972C145.282 31.972 143.398 32.0022 140.925 32.0625V31.4444C141.89 31.4343 142.594 31.359 143.036 31.2183C143.488 31.0776 143.8 30.8112 143.97 30.4193C144.141 30.0273 144.227 29.4042 144.227 28.5499V10.9113H143.548C142.553 10.9113 141.709 11.1274 141.016 11.5596C140.332 11.9917 139.744 12.7103 139.252 13.7154C138.759 14.7104 138.337 16.0722 137.985 17.8009H137.277Z" fill="#333333"/>
<path d="M164.458 15.6752C166.81 15.6752 168.654 16.3486 169.991 17.6954C171.338 19.0421 172.011 21.1779 172.011 24.1025C172.011 27.0172 171.338 29.1479 169.991 30.4946C168.654 31.8313 166.81 32.4997 164.458 32.4997C162.107 32.4997 160.257 31.8313 158.91 30.4946C157.564 29.1479 156.89 27.0172 156.89 24.1025C156.89 21.1879 157.564 19.0572 158.91 17.7104C160.257 16.3536 162.107 15.6752 164.458 15.6752ZM164.458 16.2783C163.574 16.2783 162.865 16.9215 162.333 18.2079C161.81 19.4944 161.549 21.4593 161.549 24.1025C161.549 26.7358 161.81 28.6906 162.333 29.967C162.865 31.2434 163.574 31.8816 164.458 31.8816C165.353 31.8816 166.056 31.2484 166.569 29.9821C167.092 28.7056 167.353 26.7458 167.353 24.1025C167.353 21.4492 167.092 19.4844 166.569 18.2079C166.056 16.9215 165.353 16.2783 164.458 16.2783Z" fill="#333333"/>
<path d="M189.152 28.6705C189.152 29.6253 189.293 30.3187 189.574 30.7509C189.866 31.173 190.383 31.3841 191.127 31.3841V32.0323C190.474 31.972 189.836 31.9419 189.213 31.9419C187.393 31.9419 185.891 32.0826 184.705 32.364V29.7107C184.011 31.57 182.675 32.4997 180.695 32.4997C179.439 32.4997 178.333 32.1982 177.378 31.5952C176.433 30.9821 175.695 30.0424 175.162 28.776C174.639 27.4996 174.383 25.9066 174.393 23.997C174.383 22.1879 174.67 20.6603 175.253 19.414C175.845 18.1677 176.66 17.2331 177.695 16.6099C178.74 15.9868 179.936 15.6752 181.283 15.6752C182.8 15.6752 183.941 16.0622 184.705 16.8361V11.5897C184.705 10.6349 184.554 9.94647 184.253 9.52435C183.961 9.09218 183.454 8.8761 182.73 8.8761V8.22784C183.383 8.28815 184.022 8.3183 184.645 8.3183C186.454 8.3183 187.956 8.17257 189.152 7.8811V28.6705ZM184.705 17.62C184.182 16.9165 183.429 16.5647 182.444 16.5647C181.358 16.5647 180.519 17.1929 179.926 18.4492C179.333 19.7055 179.042 21.5799 179.052 24.0724C179.021 28.8062 179.991 31.173 181.961 31.173C182.403 31.173 182.82 31.0625 183.212 30.8414C183.604 30.6203 183.931 30.3037 184.192 29.8916C184.464 29.4695 184.635 28.982 184.705 28.4293V17.62Z" fill="#333333"/>
<path d="M200.972 19.0371C200.972 18.1828 200.766 17.5094 200.354 17.017C199.951 16.5245 199.318 16.2783 198.454 16.2783C198.052 16.2783 197.65 16.3436 197.248 16.4742C196.846 16.5948 196.514 16.7808 196.253 17.032C196.826 17.223 197.273 17.5245 197.595 17.9366C197.916 18.3386 198.077 18.8462 198.077 19.4592C198.077 19.8813 197.972 20.2633 197.76 20.605C197.559 20.9366 197.268 21.203 196.886 21.404C196.504 21.595 196.067 21.6904 195.575 21.6904C194.911 21.6904 194.379 21.4643 193.977 21.012C193.585 20.5598 193.389 19.9919 193.389 19.3085C193.389 18.2431 193.961 17.3788 195.107 16.7155C196.363 16.022 197.931 15.6752 199.811 15.6752C201.921 15.6752 203.424 16.1376 204.318 17.0622C204.751 17.4944 205.042 18.0321 205.193 18.6753C205.344 19.3185 205.419 20.218 205.419 21.3738V29.771C205.419 30.2735 205.464 30.6303 205.555 30.8414C205.655 31.0424 205.826 31.1429 206.067 31.1429C206.399 31.1429 206.781 30.967 207.213 30.6152L207.53 31.1429C207.057 31.5349 206.545 31.8213 205.992 32.0022C205.439 32.1831 204.776 32.2736 204.002 32.2736C202.957 32.2736 202.203 32.0424 201.74 31.5801C201.278 31.1178 201.047 30.5147 201.047 29.771C200.544 30.6052 199.886 31.2333 199.072 31.6555C198.258 32.0675 197.389 32.2736 196.464 32.2736C195.288 32.2736 194.343 31.967 193.63 31.3539C192.926 30.7308 192.574 29.8665 192.574 28.7609C192.574 27.6855 192.926 26.7961 193.63 26.0925C194.333 25.389 195.424 24.7659 196.901 24.2231C197.062 24.1628 197.585 23.9669 198.469 23.6352C199.353 23.2935 199.992 22.9467 200.384 22.595C200.776 22.2432 200.972 21.8563 200.972 21.4341V19.0371ZM200.972 22.7005C200.841 22.9216 200.625 23.1528 200.323 23.394C200.032 23.6251 199.61 23.9116 199.057 24.2533C198.404 24.7056 197.891 25.2181 197.519 25.791C197.147 26.3538 196.961 27.0574 196.961 27.9016C196.961 28.7056 197.137 29.3087 197.489 29.7107C197.841 30.1027 198.303 30.2986 198.876 30.2986C199.69 30.2986 200.389 29.8765 200.972 29.0323V22.7005Z" fill="#333333"/>
<path d="M217.902 16.0974C218.866 16.1577 219.866 16.1878 220.902 16.1878C221.937 16.1878 222.731 16.1577 223.284 16.0974V16.7155C222.851 16.826 222.459 17.0823 222.108 17.4843C221.766 17.8863 221.444 18.5145 221.143 19.3688L215.625 34.8967C215.213 35.9721 214.761 36.7058 214.268 37.0978C213.665 37.6104 212.766 37.8666 211.57 37.8666C211.037 37.8666 210.51 37.7762 209.987 37.5953C209.474 37.4244 209.047 37.1531 208.705 36.7812C208.374 36.4093 208.208 35.947 208.208 35.3942C208.208 34.761 208.434 34.2535 208.886 33.8716C209.339 33.4897 209.937 33.2987 210.68 33.2987C211.374 33.2987 211.932 33.4696 212.354 33.8113C212.786 34.153 213.002 34.6304 213.002 35.2435C213.002 35.6656 212.861 36.0576 212.58 36.4194C212.309 36.7912 211.932 37.0676 211.449 37.2485C211.6 37.2686 211.836 37.2787 212.158 37.2787C213.444 37.2787 214.384 36.4646 214.977 34.8364L215.474 33.359L208.917 18.4793C208.595 17.7657 208.273 17.2984 207.952 17.0773C207.64 16.8562 207.324 16.7456 207.002 16.7456V16.0974C208.359 16.218 209.771 16.2783 211.238 16.2783C212.454 16.2783 213.886 16.218 215.535 16.0974V16.7456C215.093 16.7456 214.746 16.7607 214.495 16.7908C214.243 16.821 214.027 16.8964 213.846 17.017C213.675 17.1376 213.59 17.3336 213.59 17.6049C213.59 17.8461 213.66 18.1376 213.801 18.4793L217.585 27.6001L219.696 21.6603C220.027 20.6753 220.193 19.8512 220.193 19.1879C220.193 18.4039 219.992 17.811 219.59 17.4089C219.188 16.9969 218.625 16.7657 217.902 16.7155V16.0974Z" fill="#333333"/>
<path d="M24.4585 10.2028C25.8455 10.2631 27.1219 10.2932 28.2877 10.2932C29.2626 10.2932 30.0566 10.2631 30.6697 10.2028V10.8209C29.4636 11.2832 28.5591 12.5093 27.9561 14.4993L22.5137 32.1228C22.2926 32.1027 21.9308 32.0927 21.4283 32.0927C20.9358 32.0927 20.579 32.1027 20.3579 32.1228L15.8051 18.3587L11.2522 32.1228C11.021 32.1027 10.6592 32.0927 10.1667 32.0927C9.67428 32.0927 9.31246 32.1027 9.0813 32.1228L2.16156 12.7958C1.9304 12.1224 1.63391 11.6299 1.27209 11.3184C0.920329 11.0068 0.568563 10.841 0.216797 10.8209V10.2028C1.453 10.2631 2.99072 10.2932 4.82996 10.2932C6.55863 10.2932 7.81997 10.2631 8.61395 10.2028V10.8209C7.90037 10.9113 7.54358 11.3133 7.54358 12.0269C7.54358 12.4088 7.63403 12.8712 7.81494 13.4139L12.3226 26.4393L15.4583 17.2733L13.8754 12.4943C13.6744 11.8912 13.4331 11.4691 13.1517 11.2279C12.8703 10.9867 12.5437 10.851 12.1718 10.8209V10.2028C13.3176 10.2631 14.79 10.2932 16.589 10.2932C18.589 10.2932 20.0715 10.2631 21.0363 10.2028V10.8209C20.2825 10.841 19.7448 10.9264 19.4232 11.0771C19.1016 11.2279 18.9408 11.5244 18.9408 11.9666C18.9408 12.2983 19.0413 12.7807 19.2423 13.4139L23.4635 26.3337L26.4033 17.0019C26.8656 15.4943 27.0967 14.2933 27.0967 13.3988C27.0967 12.5043 26.8756 11.8611 26.4334 11.4691C26.0012 11.0671 25.3429 10.851 24.4585 10.8209V10.2028Z" fill="#333333"/>
<path d="M37.0015 15.6752C39.3533 15.6752 41.1975 16.3486 42.5342 17.6954C43.881 19.0421 44.5544 21.1779 44.5544 24.1025C44.5544 27.0172 43.881 29.1479 42.5342 30.4946C41.1975 31.8313 39.3533 32.4997 37.0015 32.4997C34.6497 32.4997 32.8004 31.8313 31.4536 30.4946C30.1069 29.1479 29.4335 27.0172 29.4335 24.1025C29.4335 21.1879 30.1069 19.0572 31.4536 17.7104C32.8004 16.3536 34.6497 15.6752 37.0015 15.6752ZM37.0015 16.2783C36.117 16.2783 35.4085 16.9215 34.8758 18.2079C34.3532 19.4944 34.0919 21.4593 34.0919 24.1025C34.0919 26.7358 34.3532 28.6906 34.8758 29.967C35.4085 31.2434 36.117 31.8816 37.0015 31.8816C37.896 31.8816 38.5995 31.2484 39.1121 29.9821C39.6347 28.7056 39.896 26.7458 39.896 24.1025C39.896 21.4492 39.6347 19.4844 39.1121 18.2079C38.5995 16.9215 37.896 16.2783 37.0015 16.2783Z" fill="#333333"/>
<path d="M52.9063 18.6301C53.2983 17.7557 53.8611 17.0471 54.5948 16.5044C55.3385 15.9516 56.1777 15.6752 57.1124 15.6752C57.7356 15.6752 58.2582 15.8109 58.6803 16.0823C59.1024 16.3536 59.414 16.7054 59.615 17.1376C59.816 17.5597 59.9165 18.017 59.9165 18.5095C59.9165 19.2733 59.6954 19.8964 59.2532 20.3788C58.811 20.8613 58.228 21.1025 57.5044 21.1025C56.8009 21.1025 56.2431 20.9266 55.831 20.5748C55.429 20.213 55.228 19.7306 55.228 19.1276C55.228 18.1426 55.6802 17.3386 56.5848 16.7155C56.4541 16.6853 56.3285 16.6702 56.2079 16.6702C56.0672 16.6702 55.9064 16.6954 55.7255 16.7456C55.2028 16.826 54.7254 17.0773 54.2933 17.4994C53.8611 17.9115 53.5194 18.409 53.2681 18.9919C53.0269 19.5748 52.9063 20.1427 52.9063 20.6954V28.8815C52.9063 29.8363 53.1375 30.4997 53.5998 30.8715C54.0621 31.2333 54.8008 31.4142 55.8159 31.4142V32.0625C53.243 31.9821 51.6048 31.9419 50.9012 31.9419C50.248 31.9419 48.7756 31.9821 46.4841 32.0625V31.4142C46.9765 31.4142 47.3635 31.3489 47.6449 31.2183C47.9364 31.0876 48.1424 30.8615 48.263 30.5399C48.3937 30.2182 48.459 29.771 48.459 29.1981V19.4592C48.459 18.5044 48.3133 17.816 48.0218 17.3939C47.7303 16.9617 47.2178 16.7456 46.4841 16.7456V16.0974C47.1373 16.1577 47.7756 16.1878 48.3987 16.1878C50.2178 16.1878 51.7204 16.0471 52.9063 15.7657V18.6301Z" fill="#333333"/>
<path d="M66.384 29.1981C66.384 29.771 66.4443 30.2182 66.5649 30.5399C66.6955 30.8615 66.9016 31.0876 67.183 31.2183C67.4744 31.3489 67.8664 31.4142 68.3589 31.4142V32.0625C66.2282 31.9821 64.8513 31.9419 64.2281 31.9419C63.5146 31.9419 62.0924 31.9821 59.9617 32.0625V31.4142C60.4542 31.4142 60.8411 31.3489 61.1226 31.2183C61.404 31.0876 61.61 30.8615 61.7407 30.5399C61.8713 30.2182 61.9366 29.771 61.9366 29.1981V11.5897C61.9366 10.6349 61.7859 9.94647 61.4844 9.52435C61.1929 9.09218 60.6854 8.8761 59.9617 8.8761V8.22784C60.615 8.28815 61.2532 8.3183 61.8763 8.3183C63.6854 8.3183 65.188 8.17257 66.384 7.8811V29.1981Z" fill="#333333"/>
<path d="M84.6105 28.6705C84.6105 29.6253 84.7512 30.3187 85.0326 30.7509C85.3241 31.173 85.8417 31.3841 86.5854 31.3841V32.0323C85.9321 31.972 85.2939 31.9419 84.6708 31.9419C82.8516 31.9419 81.3491 32.0826 80.1631 32.364V29.7107C79.4697 31.57 78.133 32.4997 76.153 32.4997C74.8967 32.4997 73.7912 32.1982 72.8364 31.5952C71.8916 30.9821 71.1529 30.0424 70.6202 28.776C70.0976 27.4996 69.8413 25.9066 69.8514 23.997C69.8413 22.1879 70.1278 20.6603 70.7107 19.414C71.3037 18.1677 72.1178 17.2331 73.153 16.6099C74.1982 15.9868 75.3942 15.6752 76.741 15.6752C78.2586 15.6752 79.3993 16.0622 80.1631 16.8361V11.5897C80.1631 10.6349 80.0124 9.94647 79.7109 9.52435C79.4194 9.09218 78.9119 8.8761 78.1882 8.8761V8.22784C78.8415 8.28815 79.4797 8.3183 80.1028 8.3183C81.9119 8.3183 83.4145 8.17257 84.6105 7.8811V28.6705ZM80.1631 17.62C79.6405 16.9165 78.8867 16.5647 77.9018 16.5647C76.8163 16.5647 75.9771 17.1929 75.3842 18.4492C74.7912 19.7055 74.4997 21.5799 74.5098 24.0724C74.4796 28.8062 75.4495 31.173 77.4194 31.173C77.8616 31.173 78.2787 31.0625 78.6707 30.8414C79.0626 30.6203 79.3893 30.3037 79.6506 29.8916C79.9219 29.4695 80.0928 28.982 80.1631 28.4293V17.62Z" fill="#333333"/>
<g clip-path="url(#clip0)">
<path fill-rule="evenodd" clip-rule="evenodd" d="M127.995 16.2185C127.934 16.1375 127.899 16.0437 127.865 15.9533L127.865 15.9532C127.845 15.9009 127.826 15.8497 127.803 15.8029C127.515 15.1954 127.131 14.6839 126.716 14.1723C126.492 13.9166 126.268 13.6608 126.044 13.437C125.213 12.6058 124.318 11.8704 123.359 11.1671C122.4 10.4637 121.44 9.82427 120.417 9.24879C119.139 8.48148 117.796 7.81008 116.453 7.17066C114.95 6.4673 113.416 5.85984 111.849 5.34831C110.41 4.86874 108.94 4.51706 107.437 4.29326C106.67 4.19734 105.871 4.1334 105.103 4.16537C104.56 4.19734 104.048 4.29326 103.537 4.48508C103.622 4.39983 103.736 4.34299 103.849 4.28615C103.906 4.25773 103.963 4.22932 104.016 4.19734C104.72 3.84566 105.423 3.52595 106.19 3.27018C106.862 3.04638 107.565 2.82258 108.268 2.6947C108.716 2.59879 109.164 2.53484 109.611 2.4709C110.123 2.40696 110.666 2.37499 111.21 2.34302C111.402 2.37499 111.625 2.37499 111.881 2.37499C111.965 2.37499 112.05 2.3839 112.13 2.39231C112.201 2.39983 112.268 2.40696 112.329 2.40696C112.459 2.41702 112.587 2.42708 112.713 2.43813C112.608 2.42593 112.502 2.41535 112.393 2.40697C112.361 2.40697 112.329 2.40697 112.297 2.375C112.648 2.375 113 2.40697 113.352 2.43894C113.653 2.4663 113.954 2.51706 114.275 2.5712C114.329 2.58034 114.383 2.58957 114.439 2.5988C114.982 2.69471 115.494 2.82259 116.005 2.95048L116.005 2.95048C116.677 3.14231 117.316 3.36611 117.956 3.62187C118.563 3.87764 119.139 4.16538 119.714 4.4851C120.194 4.74087 120.641 5.02861 121.089 5.34832C121.536 5.66803 121.952 5.98774 122.368 6.33942C122.783 6.69111 123.167 7.04279 123.551 7.42644C123.59 7.46618 123.629 7.50318 123.666 7.53885C123.777 7.64632 123.876 7.74179 123.963 7.86412C123.996 7.89919 124.029 7.93446 124.062 7.96994C124.283 8.19043 124.484 8.44846 124.682 8.70089L124.682 8.70092C124.742 8.7779 124.802 8.85436 124.861 8.92907C125.309 9.50456 125.693 10.112 126.044 10.7195C126.364 11.2949 126.652 11.8704 126.908 12.4459C126.987 12.6537 127.067 12.8535 127.147 13.0533C127.227 13.2531 127.307 13.453 127.387 13.6608C127.579 14.2683 127.771 14.8757 127.899 15.5151C127.91 15.61 127.927 15.7005 127.943 15.7882C127.969 15.937 127.995 16.0777 127.995 16.2185ZM127.867 22.4529C127.93 22.1651 127.994 21.8774 128.026 21.5896V21.5257C128.058 21.1101 127.898 20.7264 127.707 20.3747C127.387 19.7353 126.907 19.1598 126.428 18.6483C125.788 17.9769 125.117 17.3695 124.414 16.794C123.231 15.8348 122.016 14.9716 120.737 14.1723C119.138 13.1812 117.476 12.2541 115.781 11.4228C114.982 11.0392 114.151 10.6555 113.352 10.3038C111.753 9.60047 110.091 8.99302 108.428 8.44951C107.149 8.03388 105.838 7.6822 104.496 7.4584C103.664 7.33052 102.865 7.2346 102.034 7.20263C101.714 7.20263 101.394 7.20263 101.075 7.2346L100.953 7.25258C100.359 7.34017 99.7974 7.42285 99.3482 7.84205C99.3482 7.86181 99.336 7.86936 99.3192 7.87979C99.3087 7.88624 99.2965 7.89378 99.2843 7.906C99.1833 8.02939 99.0784 8.15278 98.9724 8.27756L98.9724 8.27757C98.7761 8.50841 98.5759 8.74398 98.3891 8.99302C97.7177 9.88821 97.1103 10.8793 96.6307 11.9024C96.343 12.5098 96.0872 13.1493 95.8634 13.8207C95.7675 14.1084 95.6716 14.3961 95.6076 14.7158C95.6592 14.7417 95.69 14.705 95.7168 14.673C95.7232 14.6654 95.7293 14.6581 95.7355 14.6519C95.8954 14.4601 96.0872 14.3642 96.311 14.3002C96.8545 14.1404 97.43 14.1723 97.9735 14.2043C98.6768 14.2363 99.4122 14.3642 100.116 14.524C101.298 14.7798 102.449 15.0995 103.568 15.4832C105.103 15.9947 106.606 16.5702 108.076 17.1776C109.355 17.7211 110.634 18.2966 111.913 18.9041C112.808 19.3197 113.703 19.7673 114.567 20.2469C115.494 20.7264 116.421 21.238 117.316 21.7815C118.755 22.6447 120.161 23.5399 121.504 24.563C122.367 25.2024 123.167 25.9058 123.902 26.6731C124.19 26.9928 124.446 27.3125 124.637 27.6961C124.829 28.0158 125.021 28.3675 124.925 28.7832C124.925 28.8151 124.925 28.8471 124.989 28.8791C125.037 28.8152 125.077 28.7593 125.117 28.7033L125.117 28.7032C125.157 28.6473 125.197 28.5913 125.245 28.5274C125.788 27.7601 126.268 26.9608 126.652 26.0976L126.652 26.0976L126.652 26.0975L126.652 26.0975C126.907 25.522 127.163 24.9466 127.355 24.3392C127.547 23.7317 127.739 23.0923 127.867 22.4529ZM119.394 33.6747C120.098 33.2911 120.737 32.8755 121.376 32.4279C121.6 32.236 121.536 32.0122 121.44 31.7565C121.376 31.5966 121.281 31.4368 121.153 31.2769C120.705 30.7334 120.162 30.2538 119.618 29.8062C118.627 29.007 117.572 28.3036 116.517 27.6322C114.822 26.5452 113.064 25.586 111.274 24.6589C110.059 24.0195 108.844 23.444 107.597 22.8685C106.51 22.3889 105.455 21.9413 104.368 21.4937C102.993 20.9502 101.65 20.4387 100.244 20.0231C99.4762 19.7993 98.6769 19.5755 97.8777 19.4156C97.3661 19.3197 96.8546 19.2238 96.343 19.2238C96.0233 19.2238 95.7036 19.2238 95.4159 19.3197C95.1921 19.3836 95.0322 19.5115 95.0322 19.7673C95.0322 19.8312 95.0402 19.8952 95.0482 19.9591C95.0562 20.0231 95.0642 20.087 95.0642 20.1509C95.0642 20.3595 95.0914 20.5818 95.1192 20.8087C95.134 20.9296 95.149 21.0518 95.1601 21.174L95.1975 21.387C95.2814 21.8663 95.3685 22.3635 95.4798 22.8365C95.6397 23.6038 95.8635 24.3072 96.1512 25.0106C96.2311 25.1864 96.3111 25.3702 96.391 25.5541C96.4709 25.7379 96.5509 25.9217 96.6308 26.0976C96.7906 26.4493 96.9505 26.8009 97.1743 27.1526C97.213 27.1397 97.2464 27.1113 97.281 27.0819C97.3322 27.0383 97.3857 26.9928 97.462 26.9928C97.5899 26.9928 97.7178 26.9928 97.8457 27.0247C98.3892 27.1207 98.9327 27.2805 99.4442 27.4404C100.467 27.7921 101.49 28.1757 102.482 28.5913C103.696 29.1029 104.911 29.6464 106.126 30.2219C106.957 30.6055 107.789 31.0211 108.62 31.4687C109.483 31.9163 110.314 32.3639 111.114 32.8435L111.306 32.9614L111.306 32.9614C112.068 33.4298 112.803 33.8815 113.512 34.4421C113.563 34.483 113.616 34.5231 113.67 34.5636L113.671 34.5638L113.671 34.5639C113.955 34.7762 114.252 34.9986 114.279 35.4012L114.854 35.3053C115.622 35.1454 116.357 34.9536 117.06 34.6978C117.86 34.4101 118.659 34.0904 119.394 33.6747Z" fill="#333333"/>
</g>
<defs>
<clipPath id="clip0">
<rect width="33.25" height="33.25" fill="white" transform="translate(95 2.375)"/>
</clipPath>
</defs>
</svg>
