<?xml version="1.0" standalone="no"?>
<!DOCTYPE svg PUBLIC "-//W3C//DTD SVG 20010904//EN"
 "http://www.w3.org/TR/2001/REC-SVG-20010904/DTD/svg10.dtd">
<svg version="1.0" xmlns="http://www.w3.org/2000/svg"
 width="700.000000pt" height="700.000000pt" viewBox="0 0 700.000000 700.000000"
 preserveAspectRatio="xMidYMid meet">
<metadata>
Created by potrace 1.11, written by Peter Selinger 2001-2013
</metadata>
<g transform="translate(0.000000,700.000000) scale(0.100000,-0.100000)"
fill="#000000" stroke="none">
<path d="M3209 6996 c-2 -2 -37 -7 -77 -10 -40 -4 -78 -9 -85 -11 -7 -2 -34
-6 -62 -9 -27 -3 -75 -10 -105 -16 -30 -6 -65 -13 -77 -16 -86 -16 -104 -20
-191 -44 -253 -68 -492 -160 -702 -268 -82 -43 -129 -74 -85 -57 99 37 245 59
395 58 88 0 278 -11 321 -18 13 -2 47 -6 74 -10 507 -63 1199 -282 1870 -590
98 -45 535 -263 590 -295 22 -12 65 -36 95 -53 209 -113 660 -395 668 -418 2
-5 8 -9 13 -9 14 0 248 -175 389 -291 216 -176 450 -422 571 -600 46 -68 119
-208 119 -228 0 -10 3 -11 9 -5 9 8 -25 208 -46 268 -4 12 -8 26 -9 31 -21
115 -156 463 -258 665 -141 280 -342 580 -501 745 -11 12 -34 37 -51 56 -67
75 -322 310 -375 347 -13 9 -26 19 -29 22 -15 18 -184 140 -288 207 -283 183
-608 331 -942 427 -52 15 -290 69 -355 80 -16 3 -41 8 -55 10 -14 3 -47 8 -75
11 -27 4 -61 9 -75 11 -30 6 -666 15 -671 10z"/>
<path d="M1315 5979 c-213 -20 -324 -58 -406 -140 -81 -82 -218 -259 -324
-419 -99 -149 -225 -371 -225 -395 0 -6 -4 -15 -9 -20 -15 -17 -106 -233 -149
-357 -69 -196 -87 -289 -46 -230 24 34 106 71 191 85 94 16 315 12 433 -7 14
-3 43 -7 66 -10 108 -14 460 -94 643 -147 387 -112 984 -332 1444 -533 260
-114 323 -142 620 -282 244 -115 684 -343 877 -454 36 -21 81 -47 100 -57 19
-11 61 -35 93 -54 32 -19 66 -38 75 -44 10 -5 47 -28 83 -50 35 -22 74 -45 84
-52 295 -178 654 -429 890 -622 350 -287 566 -571 549 -723 -3 -20 -1 -39 4
-42 9 -5 125 159 196 278 121 201 242 468 312 691 35 111 92 316 100 363 3 14
12 58 20 97 35 165 10 271 -109 456 -86 135 -278 344 -467 510 -46 41 -91 80
-98 87 -43 39 -346 271 -457 350 -71 50 -135 96 -142 102 -7 5 -16 10 -21 10
-5 0 -17 9 -27 20 -10 11 -22 20 -27 20 -4 0 -52 29 -105 64 -97 63 -312 196
-318 196 -2 0 -49 27 -105 60 -56 33 -103 60 -105 60 -2 0 -32 17 -67 37 -130
76 -500 264 -723 368 -437 203 -887 380 -1280 505 -88 28 -167 54 -175 57 -8
4 -17 7 -20 8 -3 0 -31 9 -63 19 -117 35 -402 105 -497 122 -25 4 -47 8 -50 9
-4 1 -47 9 -110 20 -8 2 -42 6 -75 9 -68 8 -118 15 -155 21 -87 15 -328 23
-425 14z"/>
<path d="M237 3454 c-1 -1 -32 -4 -68 -7 -73 -6 -129 -29 -148 -60 -13 -19
-14 -60 -7 -147 13 -149 18 -206 21 -210 2 -3 6 -26 10 -50 4 -25 18 -101 32
-170 14 -69 27 -133 28 -142 27 -137 111 -380 195 -564 17 -35 30 -67 30 -69
0 -8 94 -196 111 -222 16 -26 32 -29 48 -9 39 47 379 -46 878 -240 109 -42
226 -90 261 -105 34 -16 65 -29 67 -29 5 0 16 -5 305 -135 407 -184 623 -289
930 -453 448 -238 717 -403 960 -587 109 -83 143 -119 160 -170 12 -35 12 -35
58 -29 39 5 131 24 234 49 370 88 762 265 1116 504 99 67 124 91 126 123 2 34
-27 110 -64 162 -47 69 -218 235 -350 341 -284 227 -800 563 -1207 785 -60 33
-121 67 -208 115 -212 117 -773 399 -1015 510 -454 207 -1023 437 -1395 563
-284 96 -708 208 -865 227 -81 10 -238 23 -243 19z"/>
</g>
</svg>
