<?xml version="1.0" standalone="no"?>
<!DOCTYPE svg PUBLIC "-//W3C//DTD SVG 20010904//EN"
 "http://www.w3.org/TR/2001/REC-SVG-20010904/DTD/svg10.dtd">
<svg version="1.0" xmlns="http://www.w3.org/2000/svg"
 width="700.000000pt" height="700.000000pt" viewBox="0 0 700.000000 700.000000"
 preserveAspectRatio="xMidYMid meet">
<metadata>
Created by potrace 1.11, written by Peter Selinger 2001-2013
</metadata>
<g transform="translate(0.000000,700.000000) scale(0.100000,-0.100000)"
fill="#000000" stroke="none">
<path d="M3320 5923 c-175 -10 -440 -66 -624 -130 -108 -38 -359 -154 -369
-170 -4 -6 24 -2 61 9 391 110 1274 -121 2092 -549 700 -366 1194 -766 1367
-1107 19 -37 37 -66 39 -63 16 16 -62 313 -122 463 -109 272 -267 532 -447
734 -78 88 -253 245 -372 335 -382 287 -833 453 -1300 476 -177 8 -216 8 -325
2z"/>
<path d="M1890 5209 c-77 -13 -148 -49 -197 -100 -142 -148 -292 -378 -398
-610 -50 -110 -140 -367 -131 -376 3 -3 19 6 35 20 51 43 94 52 241 51 149 -1
219 -10 420 -55 658 -146 1709 -594 2480 -1056 407 -244 683 -446 880 -643
144 -144 213 -248 216 -329 1 -25 6 -47 11 -48 10 -4 110 144 173 256 130 229
270 655 270 820 0 129 -87 269 -294 476 -389 387 -1039 798 -1784 1129 -435
193 -935 361 -1262 425 -239 47 -517 63 -660 40z"/>
<path d="M1146 3460 c-15 -5 -37 -17 -48 -27 -19 -17 -20 -26 -14 -123 7 -125
63 -409 107 -547 35 -110 159 -394 189 -433 15 -20 21 -23 31 -12 58 56 545
-114 1225 -429 600 -277 1197 -637 1236 -745 l13 -36 50 7 c115 15 351 86 515
154 188 79 485 262 496 306 26 102 -221 336 -651 617 -863 564 -2183 1146
-2860 1263 -97 16 -242 19 -289 5z"/>
</g>
</svg>
